<svg id="visual" viewBox="0 0 900 600" width="900" height="600" xmlns="http://www.w3.org/2000/svg" xmlns:xlink="http://www.w3.org/1999/xlink" version="1.1"><path d="M0 229L16.7 214C33.3 199 66.7 169 100 158C133.3 147 166.7 155 200 157C233.3 159 266.7 155 300 162C333.3 169 366.7 187 400 190C433.3 193 466.7 181 500 193C533.3 205 566.7 241 600 243C633.3 245 666.7 213 700 212C733.3 211 766.7 241 800 230C833.3 219 866.7 167 883.3 141L900 115L900 0L883.3 0C866.7 0 833.3 0 800 0C766.7 0 733.3 0 700 0C666.7 0 633.3 0 600 0C566.7 0 533.3 0 500 0C466.7 0 433.3 0 400 0C366.7 0 333.3 0 300 0C266.7 0 233.3 0 200 0C166.7 0 133.3 0 100 0C66.7 0 33.3 0 16.7 0L0 0Z" fill="#ffc4c4"></path><path d="M0 271L16.7 263C33.3 255 66.7 239 100 231C133.3 223 166.7 223 200 219C233.3 215 266.7 207 300 220C333.3 233 366.7 267 400 269C433.3 271 466.7 241 500 254C533.3 267 566.7 323 600 329C633.3 335 666.7 291 700 280C733.3 269 766.7 291 800 276C833.3 261 866.7 209 883.3 183L900 157L900 113L883.3 139C866.7 165 833.3 217 800 228C766.7 239 733.3 209 700 210C666.7 211 633.3 243 600 241C566.7 239 533.3 203 500 191C466.7 179 433.3 191 400 188C366.7 185 333.3 167 300 160C266.7 153 233.3 157 200 155C166.7 153 133.3 145 100 156C66.7 167 33.3 197 16.7 212L0 227Z" fill="#fc9c99"></path><path d="M0 349L16.7 345C33.3 341 66.7 333 100 334C133.3 335 166.7 345 200 349C233.3 353 266.7 351 300 360C333.3 369 366.7 389 400 388C433.3 387 466.7 365 500 376C533.3 387 566.7 431 600 434C633.3 437 666.7 399 700 394C733.3 389 766.7 417 800 410C833.3 403 866.7 361 883.3 340L900 319L900 155L883.3 181C866.7 207 833.3 259 800 274C766.7 289 733.3 267 700 278C666.7 289 633.3 333 600 327C566.7 321 533.3 265 500 252C466.7 239 433.3 269 400 267C366.7 265 333.3 231 300 218C266.7 205 233.3 213 200 217C166.7 221 133.3 221 100 229C66.7 237 33.3 253 16.7 261L0 269Z" fill="#f4746b"></path><path d="M0 517L16.7 515C33.3 513 66.7 509 100 515C133.3 521 166.7 537 200 545C233.3 553 266.7 553 300 550C333.3 547 366.7 541 400 540C433.3 539 466.7 543 500 548C533.3 553 566.7 559 600 553C633.3 547 666.7 529 700 523C733.3 517 766.7 523 800 531C833.3 539 866.7 549 883.3 554L900 559L900 317L883.3 338C866.7 359 833.3 401 800 408C766.7 415 733.3 387 700 392C666.7 397 633.3 435 600 432C566.7 429 533.3 385 500 374C466.7 363 433.3 385 400 386C366.7 387 333.3 367 300 358C266.7 349 233.3 351 200 347C166.7 343 133.3 333 100 332C66.7 331 33.3 339 16.7 343L0 347Z" fill="#e5493b"></path><path d="M0 601L16.7 601C33.3 601 66.7 601 100 601C133.3 601 166.7 601 200 601C233.3 601 266.7 601 300 601C333.3 601 366.7 601 400 601C433.3 601 466.7 601 500 601C533.3 601 566.7 601 600 601C633.3 601 666.7 601 700 601C733.3 601 766.7 601 800 601C833.3 601 866.7 601 883.3 601L900 601L900 557L883.3 552C866.7 547 833.3 537 800 529C766.7 521 733.3 515 700 521C666.7 527 633.3 545 600 551C566.7 557 533.3 551 500 546C466.7 541 433.3 537 400 538C366.7 539 333.3 545 300 548C266.7 551 233.3 551 200 543C166.7 535 133.3 519 100 513C66.7 507 33.3 511 16.7 513L0 515Z" fill="#d10000"></path></svg>